GIL03_xfast2_RRA_states
nRows=8
nColumns=47

# SIMM Motion File Header:
name GIL03_xfast2_RRA_states
datacolumns 47
datarows 8
otherdata 1
range 0.07667000000000000200 0.07667127000000000000
endheader
time	pelvis_tx	pelvis_ty	pelvis_tz	pelvis_tilt	pelvis_list	pelvis_rotation	hip_flexion_r	hip_adduction_r	hip_rotation_r	knee_angle_r	ankle_angle_r	subtalar_angle_r	mtp_angle_r	hip_flexion_l	hip_adduction_l	hip_rotation_l	knee_angle_l	ankle_angle_l	subtalar_angle_l	mtp_angle_l	lumbar_extension	lumbar_bending	lumbar_rotation	pelvis_tx_u	pelvis_ty_u	pelvis_tz_u	pelvis_tilt_u	pelvis_list_u	pelvis_rotation_u	hip_flexion_r_u	hip_adduction_r_u	hip_rotation_r_u	knee_angle_r_u	ankle_angle_r_u	subtalar_angle_r_u	mtp_angle_r_u	hip_flexion_l_u	hip_adduction_l_u	hip_rotation_l_u	knee_angle_l_u	ankle_angle_l_u	subtalar_angle_l_u	mtp_angle_l_u	lumbar_extension_u	lumbar_bending_u	lumbar_rotation_u
      0.07667000000000000200	      0.54705822325134246000	      0.87884310910757901000	     -0.26176663414299595000	      1.53228476461783990000	      3.03259246953127670000	    -10.47951750471109900000	    -10.16056319546849300000	     -6.45640208447625510000	     -5.51749184838847300000	    -40.49727244823198200000	    -14.46342303541718300000	      0.00000000000000000000	      0.00000000000000000000	     18.37022862689596200000	      0.17128253107443084000	     -1.94959648430032730000	    -19.18272629891356500000	      3.22136936161206670000	      0.00000000000000000000	      0.00000000000000000000	    -12.68527307264599300000	     -6.77854763025422090000	     18.73072282790211300000	      2.01018948720756360000	      0.16250628943036130000	     -0.12117116410608612000	     20.89786853296559200000	     35.04946130433385300000	     53.71872751503450900000	    235.61747212049843000000	    -73.49944968803346500000	    -99.12620916603435700000	   -474.49570207568212000000	    -24.03879437715346900000	      0.00000000000000000000	      0.00000000000000000000	   -125.91962155858813000000	     81.72715601031069400000	    -33.52526235731182400000	    -48.67614723044739100000	     66.31414098429303300000	      0.00000000000000000000	      0.00000000000000000000	    -29.19509843096770000000	    -38.09956395873815900000	    -13.91551357744870300000
      0.07667000999999999700	      0.54705824335323727000	      0.87884311073264176000	     -0.26176663535470757000	      1.53228497359649380000	      3.03259282002587580000	    -10.47951696752382300000	    -10.16056083929373300000	     -6.45640281947073010000	     -5.51749283965053380000	    -40.49727719318890000000	    -14.46342327580498100000	      0.00000000000000000000	     -0.00000000000000000000	     18.37022736769973400000	      0.17128334834597853000	     -1.94959681955287060000	    -19.18272678567494100000	      3.22137002475342720000	      0.00000000000000000000	     -0.00000000000000000000	    -12.68527336459695800000	     -6.77854801124982310000	     18.73072268874694800000	      2.01018946817599090000	      0.16250626389548148000	     -0.12117116219444668000	     20.89786226649856000000	     35.04945856074051100000	     53.71872737937172800000	    235.61747976383890000000	    -73.49944535740461000000	    -99.12620288954471400000	   -474.49567991360345000000	    -24.03876544023441000000	     -0.00000000000000000001	     -0.00000000000000000001	   -125.91962416314365000000	     81.72715352354815400000	    -33.52524626543942800000	    -48.67612858646364100000	     66.31413111503984200000	      0.00000000000000000009	     -0.00000000000000000057	    -29.19509426944434700000	    -38.09955656045214300000	    -13.91551933657403600000
      0.07667003000000000000	      0.54705828355702624000	      0.87884311398276649000	     -0.26176663777813075000	      1.53228539155361390000	      3.03259352101499240000	    -10.47951589314928000000	    -10.16055612694398600000	     -6.45640428945955060000	     -5.51749482217446640000	    -40.49728668310205400000	    -14.46342375657971100000	     -0.00000000000000000000	     -0.00000000000000000000	     18.37022484930719900000	      0.17128498288899927000	     -1.94959749005747400000	    -19.18272775919713900000	      3.22137135103585190000	      0.00000000000000000000	     -0.00000000000000000000	    -12.68527394849875900000	     -6.77854877324080720000	     18.73072241043644600000	      2.01018943011284180000	      0.16250621282576255000	     -0.12117115837119506000	     20.89784973358065300000	     35.04945307357717600000	     53.71872710805922700000	    235.61749505050139000000	    -73.49943669616790500000	    -99.12619033657330200000	   -474.49563558943248000000	    -24.03870756638338000000	     -0.00000000000000000006	     -0.00000000000000000005	   -125.91962937223173000000	     81.72714855006978500000	    -33.52521408171057300000	    -48.67609129861731500000	     66.31411137684446500000	      0.00000000000000000033	     -0.00000000000000000026	    -29.19508594641466800000	    -38.09954176390596100000	    -13.91553085484448500000
      0.07667007000000000700	      0.54705836396460195000	      0.87884312048301294000	     -0.26176664262497695000	      1.53228622746710190000	      3.03259492299289590000	    -10.47951374440020600000	    -10.16054670224357200000	     -6.45640722943667190000	     -5.51749878722157750000	    -40.49730566292570400000	    -14.46342471812569900000	     -0.00000000000000000000	      0.00000000000000000000	     18.37021981252181700000	      0.17128825197474234000	     -1.94959883106474980000	    -19.18272970623930000000	      3.22137400359951750000	      0.00000000000000000000	     -0.00000000000000000000	    -12.68527511630186300000	     -6.77855029722188540000	     18.73072185381475000000	      2.01018935398652990000	      0.16250611068648765000	     -0.12117115072480086000	     20.89782466780947000000	     35.04944209934385700000	     53.71872656548649200000	    235.61752562375270000000	    -73.49941937377856500000	    -99.12616523066206800000	   -474.49554694103608000000	    -24.03859181862965100000	     -0.00000000000000000007	      0.00000000000000000022	   -125.91963979031605000000	     81.72713860329990600000	    -33.52514971431665500000	    -48.67601672340932600000	     66.31407190169771600000	      0.00000000000000000102	     -0.00000000000000000342	    -29.19506930042346200000	    -38.09951217091691700000	    -13.91555389146451600000
      0.07667015000000000600	      0.54705852477974415000	      0.87884313348349363000	     -0.26176665231866841000	      1.53228789929107020000	      3.03259772694738630000	    -10.47950944690212400000	    -10.16052785283907600000	     -6.45641310938883710000	     -5.51750671731278790000	    -40.49734362256236900000	    -14.46342664120378500000	     -0.00000000000000000000	      0.00000000000000000000	     18.37020973894980000000	      0.17129479014503490000	     -1.94960151307157740000	    -19.18273360031467300000	      3.22137930872211210000	      0.00000000000000000000	     -0.00000000000000000000	    -12.68527745190607600000	     -6.77855334518049180000	     18.73072074056859600000	      2.01018920173385230000	      0.16250590640858953000	     -0.12117113543244858000	     20.89777453652562400000	     35.04942015125060800000	     53.71872548055009100000	    235.61758676996047000000	    -73.49938472933605700000	    -99.12611501896576300000	   -474.49536964402535000000	    -24.03836032291551600000	     -0.00000000000000000026	      0.00000000000000000020	   -125.91966062611756000000	     81.72711871050758200000	    -33.52502097978397400000	    -48.67586757493197800000	     66.31399295638016200000	      0.00000000000000000264	     -0.00000000000000000252	    -29.19503600871360800000	    -38.09945298535214400000	    -13.91559996502110500000
      0.07667031000000000500	      0.54705884640999203000	      0.87884315948440594000	     -0.26176667170604762000	      1.53229124292697510000	      3.03260333485109880000	    -10.47950085190622200000	    -10.16049015401541000000	     -6.45642486928485050000	     -5.51752257748315690000	    -40.49741954179314300000	    -14.46343048730439700000	     -0.00000000000000000000	      0.00000000000000000000	     18.37018959180076600000	      0.17130786648084592000	     -1.94960687705433670000	    -19.18274138842962300000	      3.22138991894835500000	      0.00000000000000000000	     -0.00000000000000000000	    -12.68528212310650900000	     -6.77855944108349990000	     18.73071851406523100000	      2.01018889722828180000	      0.16250549785540000000	     -0.12117110484948851000	     20.89767427499201300000	     35.04937625655765000000	     53.71872331151357100000	    235.61770906119690000000	    -73.49931544179590000000	    -99.12601459607797900000	   -474.49501504913172000000	    -24.03789733066055200000	     -0.00000000000000000018	      0.00000000000000000072	   -125.91970229625180000000	     81.72707892791254400000	    -33.52476351173925200000	    -48.67556928573183200000	     66.31383508564903200000	      0.00000000000000000320	      0.00000000000000000107	    -29.19496942638416900000	    -38.09933461587584000000	    -13.91569211340038800000
      0.07667063000000000400	      0.54705948967034168000	      0.87884321148603450000	     -0.26176671048079136000	      1.53229793015065980000	      3.03261455063745530000	    -10.47948366191545400000	    -10.16041475630937700000	     -6.45644838904362040000	     -5.51755429777569260000	    -40.49757138008449400000	    -14.46343817928338300000	     -0.00000000000000000000	      0.00000000000000000000	     18.37014929748269800000	      0.17133401913337390000	     -1.94961760489627120000	    -19.18275696451634400000	      3.22141113932507390000	      0.00000000000000000000	     -0.00000000000000000000	    -12.68529146547541900000	     -6.77857163283269950000	     18.73071406101426500000	      2.01018828821627920000	      0.16250468075944793000	     -0.12117104369054631000	     20.89747375606112100000	     35.04928847314592100000	     53.71871897678558800000	    235.61795363895331000000	    -73.49917687209486400000	    -99.12581375232163300000	   -474.49430585585606000000	    -24.03697134284384900000	     -0.00000000000000000204	      0.00000000000000000125	   -125.91978563064521000000	     81.72699937468098600000	    -33.52424857973230800000	    -48.67497273834973000000	     66.31351942380271700000	      0.00000000000000000069	     -0.00000000000000000988	    -29.19483626608638400000	    -38.09909788353619600000	    -13.91587641522333400000
      0.07667127000000000000	      0.54706077619045634000	      0.87884331548850725000	     -0.26176678803022019000	      1.53231130440553540000	      3.03263698212590250000	    -10.47944928193808100000	    -10.16026396066252200000	     -6.45649542842813950000	     -5.51761773816795560000	    -40.49787505598634900000	    -14.46345356235240600000	     -0.00000000000000000000	      0.00000000000000000000	     18.37006870876656700000	      0.17138632436207152000	     -1.94963906008580960000	    -19.18278811611713800000	      3.22145357977556080000	      0.00000000000000000000	     -0.00000000000000000000	    -12.68531015008541200000	     -6.77859601610384210000	     18.73070515473540000000	      2.01018707018882600000	      0.16250304660925163000	     -0.12117092140057320000	     20.89707273474470700000	     35.04911293021903900000	     53.71871032070952600000	    235.61844277560013000000	    -73.49889975420994400000	    -99.12541207288566600000	   -474.49288745535142000000	    -24.03511935398330100000	     -0.00000000000000000367	      0.00000000000000000213	   -125.91995227593225000000	     81.72684031605152200000	    -33.52321873204813600000	    -48.67377976765806800000	     66.31288841857524100000	      0.00000000000000001820	     -0.00000000000000002286	    -29.19456996293523700000	    -38.09862444530865100000	    -13.91624503912643900000
